# 3ds Max Wavefront OBJ Exporter v0.97b - (c)2007 guruware
# File Created: 20.05.2019 09:32:21

mtllib wheel.mtl

#
# object Cylinder001
#

v  0.0000 0.0000 -0.1000
v  0.1794 0.0653 -0.1000
v  0.1909 0.0000 -0.1000
v  0.1462 0.1227 -0.1000
v  0.0954 0.1653 -0.1000
v  0.0331 0.1880 -0.1000
v  -0.0331 0.1880 -0.1000
v  -0.0954 0.1653 -0.1000
v  -0.1462 0.1227 -0.1000
v  -0.1794 0.0653 -0.1000
v  -0.1909 0.0000 -0.1000
v  -0.1794 -0.0653 -0.1000
v  -0.1462 -0.1227 -0.1000
v  -0.0954 -0.1653 -0.1000
v  -0.0331 -0.1880 -0.1000
v  0.0331 -0.1880 -0.1000
v  0.0954 -0.1653 -0.1000
v  0.1462 -0.1227 -0.1000
v  0.1794 -0.0653 -0.1000
v  0.1794 0.0653 -0.0623
v  0.1909 0.0000 -0.0623
v  0.1462 0.1227 -0.0623
v  0.0954 0.1653 -0.0623
v  0.0331 0.1880 -0.0623
v  -0.0331 0.1880 -0.0623
v  -0.0954 0.1653 -0.0623
v  -0.1462 0.1227 -0.0623
v  -0.1794 0.0653 -0.0623
v  -0.1909 0.0000 -0.0623
v  -0.1794 -0.0653 -0.0623
v  -0.1462 -0.1227 -0.0623
v  -0.0954 -0.1653 -0.0623
v  -0.0331 -0.1880 -0.0623
v  0.0331 -0.1880 -0.0623
v  0.0954 -0.1653 -0.0623
v  0.1462 -0.1227 -0.0623
v  0.1794 -0.0653 -0.0623
v  0.1794 0.0653 -0.0245
v  0.1909 0.0000 -0.0245
v  0.1462 0.1227 -0.0245
v  0.0954 0.1653 -0.0245
v  0.0331 0.1880 -0.0245
v  -0.0331 0.1880 -0.0245
v  -0.0954 0.1653 -0.0245
v  -0.1462 0.1227 -0.0245
v  -0.1794 0.0653 -0.0245
v  -0.1909 0.0000 -0.0245
v  -0.1794 -0.0653 -0.0245
v  -0.1462 -0.1227 -0.0245
v  -0.0954 -0.1653 -0.0245
v  -0.0331 -0.1880 -0.0245
v  0.0331 -0.1880 -0.0245
v  0.0954 -0.1653 -0.0245
v  0.1462 -0.1227 -0.0245
v  0.1794 -0.0653 -0.0245
v  0.1794 0.0653 0.0132
v  0.1909 0.0000 0.0132
v  0.1462 0.1227 0.0132
v  0.0954 0.1653 0.0132
v  0.0331 0.1880 0.0132
v  -0.0331 0.1880 0.0132
v  -0.0954 0.1653 0.0132
v  -0.1462 0.1227 0.0132
v  -0.1794 0.0653 0.0132
v  -0.1909 0.0000 0.0132
v  -0.1794 -0.0653 0.0132
v  -0.1462 -0.1227 0.0132
v  -0.0954 -0.1653 0.0132
v  -0.0331 -0.1880 0.0132
v  0.0331 -0.1880 0.0132
v  0.0954 -0.1653 0.0132
v  0.1462 -0.1227 0.0132
v  0.1794 -0.0653 0.0132
v  0.1794 0.0653 0.0510
v  0.1909 0.0000 0.0510
v  0.1462 0.1227 0.0510
v  0.0954 0.1653 0.0510
v  0.0331 0.1880 0.0510
v  -0.0331 0.1880 0.0510
v  -0.0954 0.1653 0.0510
v  -0.1462 0.1227 0.0510
v  -0.1794 0.0653 0.0510
v  -0.1909 0.0000 0.0510
v  -0.1794 -0.0653 0.0510
v  -0.1462 -0.1227 0.0510
v  -0.0954 -0.1653 0.0510
v  -0.0331 -0.1880 0.0510
v  0.0331 -0.1880 0.0510
v  0.0954 -0.1653 0.0510
v  0.1462 -0.1227 0.0510
v  0.1794 -0.0653 0.0510
v  0.1794 0.0653 0.0887
v  0.1909 0.0000 0.0887
v  0.1462 0.1227 0.0887
v  0.0954 0.1653 0.0887
v  0.0331 0.1880 0.0887
v  -0.0331 0.1880 0.0887
v  -0.0954 0.1653 0.0887
v  -0.1462 0.1227 0.0887
v  -0.1794 0.0653 0.0887
v  -0.1909 0.0000 0.0887
v  -0.1794 -0.0653 0.0887
v  -0.1462 -0.1227 0.0887
v  -0.0954 -0.1653 0.0887
v  -0.0331 -0.1880 0.0887
v  0.0331 -0.1880 0.0887
v  0.0954 -0.1653 0.0887
v  0.1462 -0.1227 0.0887
v  0.1794 -0.0653 0.0887
v  0.0000 0.0000 0.0887
# 110 vertices

vn 0.0000 -0.0000 -1.0000
vn 1.0000 -0.0000 0.0000
vn 0.9397 0.3420 -0.0000
vn 1.0000 -0.0000 -0.0000
vn 0.7660 0.6428 -0.0000
vn 0.5000 0.8660 -0.0000
vn 0.1736 0.9848 -0.0000
vn -0.1736 0.9848 -0.0000
vn -0.5000 0.8660 -0.0000
vn -0.7660 0.6428 -0.0000
vn -0.9397 0.3420 -0.0000
vn -1.0000 -0.0000 -0.0000
vn -1.0000 0.0000 -0.0000
vn -0.9397 -0.3420 -0.0000
vn -0.9397 -0.3420 0.0000
vn -0.7660 -0.6428 -0.0000
vn -0.7660 -0.6428 0.0000
vn -0.5000 -0.8660 -0.0000
vn -0.5000 -0.8660 0.0000
vn -0.1736 -0.9848 -0.0000
vn -0.1736 -0.9848 0.0000
vn 0.1736 -0.9848 -0.0000
vn 0.1736 -0.9848 0.0000
vn 0.5000 -0.8660 -0.0000
vn 0.5000 -0.8660 0.0000
vn 0.7660 -0.6428 -0.0000
vn 0.7660 -0.6428 0.0000
vn 0.9397 -0.3420 -0.0000
vn 0.9397 -0.3420 0.0000
vn 0.7660 0.6428 0.0000
vn -0.1736 0.9848 0.0000
vn -1.0000 0.0000 0.0000
vn 0.9397 0.3420 0.0000
vn 0.5000 0.8660 0.0000
vn 0.1736 0.9848 0.0000
vn -0.5000 0.8660 0.0000
vn -0.7660 0.6428 0.0000
vn -0.9397 0.3420 0.0000
vn -1.0000 -0.0000 0.0000
vn 0.0000 0.0000 1.0000
# 40 vertex normals

vt 0.5000 0.0000 0.0000
vt 0.8056 0.0000 1.0000
vt 0.7500 0.0000 1.0000
vt 0.8611 0.0000 1.0000
vt 0.9167 0.0000 1.0000
vt 0.9722 0.0000 1.0000
vt 0.0278 0.0000 1.0000
vt -0.0278 0.0000 1.0000
vt 0.0833 0.0000 1.0000
vt 0.1389 0.0000 1.0000
vt 0.1944 0.0000 1.0000
vt 0.2500 0.0000 1.0000
vt 0.3056 0.0000 1.0000
vt 0.3611 0.0000 1.0000
vt 0.4167 0.0000 1.0000
vt 0.4722 0.0000 1.0000
vt 0.5278 0.0000 1.0000
vt 0.5833 0.0000 1.0000
vt 0.6389 0.0000 1.0000
vt 0.6944 0.0000 1.0000
vt 0.8056 0.2000 1.0000
vt 0.7500 0.2000 1.0000
vt 0.8611 0.2000 1.0000
vt 0.9167 0.2000 1.0000
vt 0.9722 0.2000 1.0000
vt 0.0278 0.2000 1.0000
vt -0.0278 0.2000 1.0000
vt 0.0833 0.2000 1.0000
vt 0.1389 0.2000 1.0000
vt 0.1944 0.2000 1.0000
vt 0.2500 0.2000 1.0000
vt 0.3056 0.2000 1.0000
vt 0.3611 0.2000 1.0000
vt 0.4167 0.2000 1.0000
vt 0.4722 0.2000 1.0000
vt 0.5278 0.2000 1.0000
vt 0.5833 0.2000 1.0000
vt 0.6389 0.2000 1.0000
vt 0.6944 0.2000 1.0000
vt 0.8056 0.4000 1.0000
vt 0.7500 0.4000 1.0000
vt 0.8611 0.4000 1.0000
vt 0.9167 0.4000 1.0000
vt 0.9722 0.4000 1.0000
vt 0.0278 0.4000 1.0000
vt -0.0278 0.4000 1.0000
vt 0.0833 0.4000 1.0000
vt 0.1389 0.4000 1.0000
vt 0.1944 0.4000 1.0000
vt 0.2500 0.4000 1.0000
vt 0.3056 0.4000 1.0000
vt 0.3611 0.4000 1.0000
vt 0.4167 0.4000 1.0000
vt 0.4722 0.4000 1.0000
vt 0.5278 0.4000 1.0000
vt 0.5833 0.4000 1.0000
vt 0.6389 0.4000 1.0000
vt 0.6944 0.4000 1.0000
vt 0.8056 0.6000 1.0000
vt 0.7500 0.6000 1.0000
vt 0.8611 0.6000 1.0000
vt 0.9167 0.6000 1.0000
vt 0.9722 0.6000 1.0000
vt 0.0278 0.6000 1.0000
vt -0.0278 0.6000 1.0000
vt 0.0833 0.6000 1.0000
vt 0.1389 0.6000 1.0000
vt 0.1944 0.6000 1.0000
vt 0.2500 0.6000 1.0000
vt 0.3056 0.6000 1.0000
vt 0.3611 0.6000 1.0000
vt 0.4167 0.6000 1.0000
vt 0.4722 0.6000 1.0000
vt 0.5278 0.6000 1.0000
vt 0.5833 0.6000 1.0000
vt 0.6389 0.6000 1.0000
vt 0.6944 0.6000 1.0000
vt 0.8056 0.8000 1.0000
vt 0.7500 0.8000 1.0000
vt 0.8611 0.8000 1.0000
vt 0.9167 0.8000 1.0000
vt 0.9722 0.8000 1.0000
vt 0.0278 0.8000 1.0000
vt -0.0278 0.8000 1.0000
vt 0.0833 0.8000 1.0000
vt 0.1389 0.8000 1.0000
vt 0.1944 0.8000 1.0000
vt 0.2500 0.8000 1.0000
vt 0.3056 0.8000 1.0000
vt 0.3611 0.8000 1.0000
vt 0.4167 0.8000 1.0000
vt 0.4722 0.8000 1.0000
vt 0.5278 0.8000 1.0000
vt 0.5833 0.8000 1.0000
vt 0.6389 0.8000 1.0000
vt 0.6944 0.8000 1.0000
vt 0.8056 1.0000 1.0000
vt 0.7500 1.0000 1.0000
vt 0.8611 1.0000 1.0000
vt 0.9167 1.0000 1.0000
vt 0.9722 1.0000 1.0000
vt 0.0278 1.0000 1.0000
vt -0.0278 1.0000 1.0000
vt 0.0833 1.0000 1.0000
vt 0.1389 1.0000 1.0000
vt 0.1944 1.0000 1.0000
vt 0.2500 1.0000 1.0000
vt 0.3056 1.0000 1.0000
vt 0.3611 1.0000 1.0000
vt 0.4167 1.0000 1.0000
vt 0.4722 1.0000 1.0000
vt 0.5278 1.0000 1.0000
vt 0.5833 1.0000 1.0000
vt 0.6389 1.0000 1.0000
vt 0.6944 1.0000 1.0000
vt 0.5000 1.0000 0.0000
# 116 texture coords

o Cylinder001
g Cylinder001
usemtl wire_177028149
s 1
f 1/1/1 2/2/1 3/3/1 
f 1/1/1 4/4/1 2/2/1 
f 1/1/1 5/5/1 4/4/1 
f 1/1/1 6/6/1 5/5/1 
f 1/1/1 7/7/1 6/8/1 
f 1/1/1 8/9/1 7/7/1 
f 1/1/1 9/10/1 8/9/1 
f 1/1/1 10/11/1 9/10/1 
f 1/1/1 11/12/1 10/11/1 
f 1/1/1 12/13/1 11/12/1 
f 1/1/1 13/14/1 12/13/1 
f 1/1/1 14/15/1 13/14/1 
f 1/1/1 15/16/1 14/15/1 
f 1/1/1 16/17/1 15/16/1 
f 1/1/1 17/18/1 16/17/1 
f 1/1/1 18/19/1 17/18/1 
f 1/1/1 19/20/1 18/19/1 
f 1/1/1 3/3/1 19/20/1 
s 8
f 3/3/2 20/21/3 21/22/4 
f 3/3/2 2/2/3 20/21/3 
f 2/2/3 22/23/5 20/21/3 
f 2/2/3 4/4/5 22/23/5 
f 4/4/5 23/24/6 22/23/5 
f 4/4/5 5/5/6 23/24/6 
f 5/5/6 24/25/7 23/24/6 
f 5/5/6 6/6/7 24/25/7 
f 6/8/7 25/26/8 24/27/7 
f 6/8/7 7/7/8 25/26/8 
f 7/7/8 26/28/9 25/26/8 
f 7/7/8 8/9/9 26/28/9 
f 8/9/9 27/29/10 26/28/9 
f 8/9/9 9/10/10 27/29/10 
f 9/10/10 28/30/11 27/29/10 
f 9/10/10 10/11/11 28/30/11 
f 10/11/11 29/31/12 28/30/11 
f 10/11/11 11/12/13 29/31/12 
f 11/12/13 30/32/14 29/31/12 
f 11/12/13 12/13/15 30/32/14 
f 12/13/15 31/33/16 30/32/14 
f 12/13/15 13/14/17 31/33/16 
f 13/14/17 32/34/18 31/33/16 
f 13/14/17 14/15/19 32/34/18 
f 14/15/19 33/35/20 32/34/18 
f 14/15/19 15/16/21 33/35/20 
f 15/16/21 34/36/22 33/35/20 
f 15/16/21 16/17/23 34/36/22 
f 16/17/23 35/37/24 34/36/22 
f 16/17/23 17/18/25 35/37/24 
f 17/18/25 36/38/26 35/37/24 
f 17/18/25 18/19/27 36/38/26 
f 18/19/27 37/39/28 36/38/26 
f 18/19/27 19/20/29 37/39/28 
f 19/20/29 21/22/4 37/39/28 
f 19/20/29 3/3/2 21/22/4 
f 21/22/4 38/40/3 39/41/4 
f 21/22/4 20/21/3 38/40/3 
f 20/21/3 40/42/30 38/40/3 
f 20/21/3 22/23/5 40/42/30 
f 22/23/5 41/43/6 40/42/30 
f 22/23/5 23/24/6 41/43/6 
f 23/24/6 42/44/7 41/43/6 
f 23/24/6 24/25/7 42/44/7 
f 24/27/7 43/45/31 42/46/7 
f 24/27/7 25/26/8 43/45/31 
f 25/26/8 44/47/9 43/45/31 
f 25/26/8 26/28/9 44/47/9 
f 26/28/9 45/48/10 44/47/9 
f 26/28/9 27/29/10 45/48/10 
f 27/29/10 46/49/11 45/48/10 
f 27/29/10 28/30/11 46/49/11 
f 28/30/11 47/50/32 46/49/11 
f 28/30/11 29/31/12 47/50/32 
f 29/31/12 48/51/15 47/50/32 
f 29/31/12 30/32/14 48/51/15 
f 30/32/14 49/52/16 48/51/15 
f 30/32/14 31/33/16 49/52/16 
f 31/33/16 50/53/19 49/52/16 
f 31/33/16 32/34/18 50/53/19 
f 32/34/18 51/54/21 50/53/19 
f 32/34/18 33/35/20 51/54/21 
f 33/35/20 52/55/22 51/54/21 
f 33/35/20 34/36/22 52/55/22 
f 34/36/22 53/56/24 52/55/22 
f 34/36/22 35/37/24 53/56/24 
f 35/37/24 54/57/27 53/56/24 
f 35/37/24 36/38/26 54/57/27 
f 36/38/26 55/58/29 54/57/27 
f 36/38/26 37/39/28 55/58/29 
f 37/39/28 39/41/4 55/58/29 
f 37/39/28 21/22/4 39/41/4 
f 39/41/4 56/59/33 57/60/2 
f 39/41/4 38/40/3 56/59/33 
f 38/40/3 58/61/30 56/59/33 
f 38/40/3 40/42/30 58/61/30 
f 40/42/30 59/62/34 58/61/30 
f 40/42/30 41/43/6 59/62/34 
f 41/43/6 60/63/35 59/62/34 
f 41/43/6 42/44/7 60/63/35 
f 42/46/7 61/64/31 60/65/35 
f 42/46/7 43/45/31 61/64/31 
f 43/45/31 62/66/36 61/64/31 
f 43/45/31 44/47/9 62/66/36 
f 44/47/9 63/67/37 62/66/36 
f 44/47/9 45/48/10 63/67/37 
f 45/48/10 64/68/38 63/67/37 
f 45/48/10 46/49/11 64/68/38 
f 46/49/11 65/69/32 64/68/38 
f 46/49/11 47/50/32 65/69/32 
f 47/50/32 66/70/15 65/69/32 
f 47/50/32 48/51/15 66/70/15 
f 48/51/15 67/71/17 66/70/15 
f 48/51/15 49/52/16 67/71/17 
f 49/52/16 68/72/19 67/71/17 
f 49/52/16 50/53/19 68/72/19 
f 50/53/19 69/73/21 68/72/19 
f 50/53/19 51/54/21 69/73/21 
f 51/54/21 70/74/23 69/73/21 
f 51/54/21 52/55/22 70/74/23 
f 52/55/22 71/75/25 70/74/23 
f 52/55/22 53/56/24 71/75/25 
f 53/56/24 72/76/27 71/75/25 
f 53/56/24 54/57/27 72/76/27 
f 54/57/27 73/77/29 72/76/27 
f 54/57/27 55/58/29 73/77/29 
f 55/58/29 57/60/2 73/77/29 
f 55/58/29 39/41/4 57/60/2 
f 57/60/2 74/78/3 75/79/2 
f 57/60/2 56/59/33 74/78/3 
f 56/59/33 76/80/5 74/78/3 
f 56/59/33 58/61/30 76/80/5 
f 58/61/30 77/81/6 76/80/5 
f 58/61/30 59/62/34 77/81/6 
f 59/62/34 78/82/7 77/81/6 
f 59/62/34 60/63/35 78/82/7 
f 60/65/35 79/83/8 78/84/7 
f 60/65/35 61/64/31 79/83/8 
f 61/64/31 80/85/9 79/83/8 
f 61/64/31 62/66/36 80/85/9 
f 62/66/36 81/86/10 80/85/9 
f 62/66/36 63/67/37 81/86/10 
f 63/67/37 82/87/11 81/86/10 
f 63/67/37 64/68/38 82/87/11 
f 64/68/38 83/88/13 82/87/11 
f 64/68/38 65/69/32 83/88/13 
f 65/69/32 84/89/15 83/88/13 
f 65/69/32 66/70/15 84/89/15 
f 66/70/15 85/90/17 84/89/15 
f 66/70/15 67/71/17 85/90/17 
f 67/71/17 86/91/19 85/90/17 
f 67/71/17 68/72/19 86/91/19 
f 68/72/19 87/92/21 86/91/19 
f 68/72/19 69/73/21 87/92/21 
f 69/73/21 88/93/23 87/92/21 
f 69/73/21 70/74/23 88/93/23 
f 70/74/23 89/94/25 88/93/23 
f 70/74/23 71/75/25 89/94/25 
f 71/75/25 90/95/27 89/94/25 
f 71/75/25 72/76/27 90/95/27 
f 72/76/27 91/96/29 90/95/27 
f 72/76/27 73/77/29 91/96/29 
f 73/77/29 75/79/2 91/96/29 
f 73/77/29 57/60/2 75/79/2 
f 75/79/2 92/97/3 93/98/2 
f 75/79/2 74/78/3 92/97/3 
f 74/78/3 94/99/5 92/97/3 
f 74/78/3 76/80/5 94/99/5 
f 76/80/5 95/100/6 94/99/5 
f 76/80/5 77/81/6 95/100/6 
f 77/81/6 96/101/7 95/100/6 
f 77/81/6 78/82/7 96/101/7 
f 78/84/7 97/102/8 96/103/7 
f 78/84/7 79/83/8 97/102/8 
f 79/83/8 98/104/9 97/102/8 
f 79/83/8 80/85/9 98/104/9 
f 80/85/9 99/105/10 98/104/9 
f 80/85/9 81/86/10 99/105/10 
f 81/86/10 100/106/11 99/105/10 
f 81/86/10 82/87/11 100/106/11 
f 82/87/11 101/107/39 100/106/11 
f 82/87/11 83/88/13 101/107/39 
f 83/88/13 102/108/15 101/107/39 
f 83/88/13 84/89/15 102/108/15 
f 84/89/15 103/109/17 102/108/15 
f 84/89/15 85/90/17 103/109/17 
f 85/90/17 104/110/19 103/109/17 
f 85/90/17 86/91/19 104/110/19 
f 86/91/19 105/111/21 104/110/19 
f 86/91/19 87/92/21 105/111/21 
f 87/92/21 106/112/23 105/111/21 
f 87/92/21 88/93/23 106/112/23 
f 88/93/23 107/113/25 106/112/23 
f 88/93/23 89/94/25 107/113/25 
f 89/94/25 108/114/27 107/113/25 
f 89/94/25 90/95/27 108/114/27 
f 90/95/27 109/115/29 108/114/27 
f 90/95/27 91/96/29 109/115/29 
f 91/96/29 93/98/2 109/115/29 
f 91/96/29 75/79/2 93/98/2 
s 1
f 110/116/40 93/98/40 92/97/40 
f 110/116/40 92/97/40 94/99/40 
f 110/116/40 94/99/40 95/100/40 
f 110/116/40 95/100/40 96/101/40 
f 110/116/40 96/103/40 97/102/40 
f 110/116/40 97/102/40 98/104/40 
f 110/116/40 98/104/40 99/105/40 
f 110/116/40 99/105/40 100/106/40 
f 110/116/40 100/106/40 101/107/40 
f 110/116/40 101/107/40 102/108/40 
f 110/116/40 102/108/40 103/109/40 
f 110/116/40 103/109/40 104/110/40 
f 110/116/40 104/110/40 105/111/40 
f 110/116/40 105/111/40 106/112/40 
f 110/116/40 106/112/40 107/113/40 
f 110/116/40 107/113/40 108/114/40 
f 110/116/40 108/114/40 109/115/40 
f 110/116/40 109/115/40 93/98/40 
# 216 faces

